<?xml version="1.0" encoding="UTF-8"?>
<svg width="74px" height="75px" viewBox="0 0 74 75" version="1.1" xmlns="http://www.w3.org/2000/svg" xmlns:xlink="http://www.w3.org/1999/xlink">
    <title>Group</title>
    <defs>
        <linearGradient x1="15.117109%" y1="14.6452609%" x2="71.1673306%" y2="71.4537328%" id="linearGradient-1">
            <stop stop-color="#FEF88E" offset="0%"></stop>
            <stop stop-color="#FFDE39" offset="100%"></stop>
        </linearGradient>
        <linearGradient x1="24.9373767%" y1="80.4209011%" x2="55.624431%" y2="61.2741371%" id="linearGradient-2">
            <stop stop-color="#E08245" offset="0%"></stop>
            <stop stop-color="#6B2D14" offset="100%"></stop>
        </linearGradient>
        <linearGradient x1="66.0209128%" y1="38.0326392%" x2="50%" y2="50%" id="linearGradient-3">
            <stop stop-color="#FFE4A6" offset="0%"></stop>
            <stop stop-color="#FFC028" offset="100%"></stop>
        </linearGradient>
        <path d="M18.9246575,47.8807739 C16.5575343,47.3711416 14.5068493,46.6108032 12.4273973,45.4723505 L11.9917809,45.2339741 L12.0164384,45.0243672 C12.0287671,44.913399 12.1232877,44.0338723 12.2260274,43.0721469 C12.3287671,42.1104214 12.4273973,41.1980153 12.4438356,41.0459476 L12.4767123,40.7664718 L11.860274,40.3020489 C10.7383562,39.4554017 9.73972605,38.5471054 8.86438357,37.5648303 C8.58904108,37.260695 8.34657535,37.0058788 8.31780822,36.997659 C8.28082194,36.9894391 4.39315068,37.7456676 4.00273973,37.8360863 C3.92876712,37.8566359 3.85890411,37.7703272 3.54657534,37.2894646 C2.48630137,35.6701491 1.56575343,33.7754678 0.941095892,31.9342157 C0.743835616,31.3588245 0.534246575,30.6519152 0.534246575,30.5614966 C0.534246575,30.528617 1.29863014,29.8874668 2.23150685,29.1353482 C3.16027397,28.3873395 3.94109589,27.7585191 3.96164384,27.7420793 C3.98219178,27.7215296 3.95753425,27.4502737 3.90821918,27.1173688 C3.74794521,25.9994658 3.68630137,25.2103577 3.68219178,24.0636851 C3.68219178,23.4554143 3.69452055,22.7608349 3.71095891,22.5183486 L3.74383562,22.086805 L1.8739726,20.837384 C0.842465752,20.1510244 0,19.5756332 0,19.5550835 C0,19.4687747 0.263013698,18.2851127 0.406849315,17.7343811 C0.817808217,16.1684948 1.34383562,14.7875558 2.12465753,13.2339994 C2.42465753,12.6339485 2.7,12.1119863 2.72876712,12.070887 C2.79041096,11.9886882 2.53150685,11.9681385 6.38219178,12.3873522 L7.2369863,12.4777708 L7.65205479,11.9270391 C8.5068493,10.7885864 9.61643837,9.58026477 10.6027397,8.70895791 C10.8164384,8.51990078 10.9972603,8.34317347 11.0054795,8.3144039 C11.0178082,8.27741448 10.2657534,4.42229294 10.1671233,4.0030793 C10.1465753,3.92910042 10.2164384,3.86745135 10.5986302,3.62085509 C12.1479452,2.60981042 13.7342466,1.80837258 15.4315068,1.17133224 C16.2739726,0.854867036 17.3917809,0.51374221 17.4739726,0.542511774 C17.5068493,0.554841587 18.1520548,1.33572975 18.9082191,2.28101541 L20.2808219,3.99074949 L20.4657534,3.9701998 C20.5684932,3.95786999 20.8356164,3.92088055 21.0616438,3.88800104 C22.2657534,3.70305385 24.3821918,3.62085509 25.5246575,3.71127373 L25.9150685,3.74415323 L27.1643836,1.87002165 L28.4095891,0 L28.5575343,0.0246596261 C30.8054795,0.410993768 33.3945205,1.33983969 35.5808219,2.53994149 L36.0041096,2.77420793 L35.9835616,2.97970482 C35.9712329,3.09478307 35.8767123,3.9701998 35.7739726,4.93192522 C35.6712329,5.89365063 35.5726027,6.80605679 35.5561644,6.95812449 L35.5232877,7.23760025 L36.0575343,7.64037415 C37.2246575,8.51990078 38.4205479,9.61725418 39.2917809,10.6036392 C39.4808219,10.817356 39.6575343,10.9981933 39.6863014,11.0064131 C39.7232877,11.0187429 43.5780822,10.2666243 43.9972603,10.1679858 C44.0712329,10.1474361 44.1328767,10.2255249 44.4123288,10.6529585 C45.2547945,11.9516988 45.8383562,13.0449422 46.4136986,14.3971117 C46.9150685,15.5766638 47.5109589,17.3316072 47.4534247,17.475455 C47.4369863,17.5206643 44.5027397,19.916758 44.0630137,20.245553 C44.0095891,20.2825425 44.0136986,20.3688511 44.0876712,20.8867032 C44.2520548,22.0046063 44.3136986,22.7937144 44.3178082,23.940387 C44.3178082,24.5527677 44.3054795,25.2432372 44.2890411,25.4857235 L44.2561644,25.917267 L46.1260274,27.1666881 C47.1575343,27.8530477 48,28.424329 48,28.4407688 C48,28.5229674 47.7821918,29.5216823 47.650685,30.0354246 C47.1657534,31.9712052 46.4342466,33.8206771 45.439726,35.6249398 L45.230137,36.007164 L45,35.9866143 C44.8767123,35.9701745 44.0917809,35.8879758 43.2534247,35.7934472 C42.4191781,35.7030286 41.5150685,35.6085 41.2479452,35.5797305 L40.7630137,35.5263013 L40.2986302,36.142792 C40.039726,36.4839168 39.649315,36.9771093 39.4273973,37.2360354 C38.9753425,37.7703272 37.6808219,39.0731775 37.2616438,39.4143023 C37.1095891,39.5376005 36.9863014,39.6691185 36.9863014,39.701998 C36.9863014,39.7389874 37.1794521,40.7377023 37.4178082,41.9213643 C37.6561644,43.1050263 37.849315,44.0790816 37.849315,44.0831916 C37.849315,44.1119611 36.6041096,44.8928492 36.1232877,45.172325 C35.2808219,45.6531877 33.9328767,46.2984479 33.0205479,46.6601225 C31.9068493,47.0957759 30.6369863,47.5026597 30.5219178,47.4574504 C30.4808219,47.4410106 28.1136986,44.5352846 27.7561644,44.0667518 C27.7191781,44.0133226 27.6328767,44.0174325 27.1150685,44.0914114 C25.9561644,44.2640288 25.2164384,44.317458 24,44.3215679 C23.3547945,44.3215679 22.660274,44.3092381 22.4547945,44.2927983 L22.0849315,44.2599189 L20.8356164,46.1299405 C20.030137,47.3423721 19.5657534,48.0040721 19.5246575,47.9999811 C19.4876712,47.9999811 19.2205479,47.9465329 18.9246575,47.8807739 Z M24.760274,36.1633416 C28.0972603,35.9455149 31.1260274,34.4289479 33.2917809,31.8931163 C34.5328767,30.4464183 35.4739726,28.5476271 35.8931507,26.6693856 C36.4972603,23.9486069 36.1726027,21.1908387 34.9561644,18.6796667 C33.9205479,16.5383892 32.3219178,14.7875558 30.2876712,13.5627943 C26.3794521,11.2036901 21.439726,11.2406796 17.5643836,13.653213 C14.5191781,15.5478942 12.460274,18.6919965 11.9383562,22.2429827 C11.5890411,24.6555161 11.9671233,27.1009291 13.0273973,29.2997457 C14.9876712,33.3439244 18.9082191,35.9372951 23.4246575,36.1797814 C23.9383562,36.2085509 24.1356164,36.2085509 24.760274,36.1633416 Z" id="path-4"></path>
        <linearGradient x1="100%" y1="73.7849378%" x2="9.41179527%" y2="25.8325598%" id="linearGradient-5">
            <stop stop-color="#B0871E" offset="0%"></stop>
            <stop stop-color="#8A5901" offset="100%"></stop>
        </linearGradient>
        <linearGradient x1="24.9373767%" y1="80.4209011%" x2="78.8188052%" y2="27.1296161%" id="linearGradient-6">
            <stop stop-color="#FFCE5E" offset="0%"></stop>
            <stop stop-color="#F0A620" offset="100%"></stop>
        </linearGradient>
        <path d="M18.2831437,46.2576969 C15.9962619,45.7653403 14.0150917,45.030776 12.0061295,43.9309148 L11.5852798,43.7006191 L11.6091014,43.4981175 C11.6210123,43.3909109 11.7123288,42.5411987 11.8115858,41.6120741 C11.9108428,40.6829496 12.0061295,39.8014724 12.0220107,39.6545595 L12.0537729,39.3845576 L11.4582308,38.9358777 C10.3743441,38.1179305 9.40956586,37.2404239 8.563896,36.2914463 C8.29788716,35.9976206 8.06364059,35.7514423 8.03584862,35.7435011 C8.00011609,35.7355598 4.24423032,36.4661535 3.86705363,36.5535071 C3.79558858,36.5733602 3.7280938,36.4899772 3.42635245,36.0254149 C2.40201997,34.4609915 1.51267704,32.6305368 0.909194335,30.8517 C0.71862085,30.2958135 0.516136522,29.6128672 0.516136522,29.5255136 C0.516136522,29.4937487 1.25460878,28.8743324 2.15586255,28.1477093 C3.05314604,27.4250569 3.80749942,26.8175523 3.82735082,26.8016699 C3.84720223,26.7818168 3.82338055,26.519756 3.77573717,26.1981359 C3.62089621,25.1181279 3.561342,24.3557693 3.55737172,23.247967 C3.55737172,22.6603156 3.56928256,21.9892811 3.58516369,21.7550146 L3.61692593,21.3380999 L1.81044811,20.131032 C0.813907591,19.4679388 0,18.9120524 0,18.8921993 C0,18.8088163 0.25409798,17.6652784 0.393057813,17.1332156 C0.790085906,15.6204103 1.29828186,14.2862827 2.05263524,12.7853892 C2.34246575,12.205679 2.60847458,11.7014105 2.63626654,11.6617043 C2.69582075,11.582292 2.44569305,11.5624389 6.1658463,11.9674419 L6.99166473,12.0547955 L7.39266311,11.5227327 C8.21848157,10.4228716 9.29045736,9.25550998 10.2433248,8.41373905 C10.4497794,8.23109063 10.6244718,8.06035404 10.6324123,8.03255972 C10.6443232,7.99682416 9.91776179,4.27238471 9.82247504,3.86738169 C9.80262362,3.79591058 9.87011837,3.73635131 10.2393545,3.49811424 C11.7361504,2.52134228 13.2686789,1.74707181 14.9084049,1.13162606 C15.7223125,0.825888491 16.8022289,0.496327219 16.8816346,0.524121544 C16.9133968,0.536033397 17.5367309,1.29045077 18.2672626,2.20369286 L19.5933364,3.85546984 L19.7719991,3.83561675 C19.8712561,3.8237049 20.1293243,3.78796934 20.3476898,3.7562044 C21.5109821,3.57752659 23.5556768,3.49811424 24.6594149,3.58546784 L25.0365916,3.61723277 L26.243557,1.80663108 L27.4465521,0 L27.5894822,0.0238237065 C29.7612259,0.397061776 32.2625029,1.29442139 34.3746923,2.45384178 L34.7836313,2.68016699 L34.7637799,2.87869788 C34.751869,2.98987517 34.6605526,3.83561675 34.5612956,4.7647413 C34.4620385,5.69386586 34.3667518,6.57534301 34.3508707,6.72225586 L34.3191084,6.99225787 L34.8352449,7.38137841 C35.9628047,8.23109063 37.1181565,9.29124551 37.959856,10.2441938 C38.1424889,10.4506659 38.313211,10.6253731 38.341003,10.6333143 C38.3767355,10.6452262 42.1008591,9.91860316 42.5058277,9.82330833 C42.5772927,9.80345522 42.636847,9.87889696 42.9068261,10.2918413 C43.7207337,11.5465565 44.2845135,12.6027408 44.8403529,13.909074 C45.3247272,15.0486413 45.9004179,16.7440951 45.844834,16.8830667 C45.8289528,16.9267435 42.9941723,19.2416136 42.5693522,19.5592631 C42.5177386,19.5949986 42.5217088,19.6783816 42.5931739,20.1786795 C42.7519852,21.2586874 42.8115393,22.0210461 42.8155097,23.1288484 C42.8155097,23.7204705 42.8035988,24.3875343 42.7877177,24.6218007 L42.7559554,25.0387155 L44.5624332,26.2457834 C45.5589737,26.9088766 46.3728814,27.4607924 46.3728814,27.4766748 C46.3728814,27.5560872 46.1624564,28.5209474 46.0354075,29.0172746 C45.5669143,30.8874355 44.8602043,32.6742135 43.8993964,34.4173147 L43.696912,34.7865821 L43.4745763,34.7667291 C43.3554679,34.7508466 42.5971442,34.6714343 41.7872069,34.58011 C40.9812399,34.4927564 40.107778,34.4014322 39.8497097,34.3736379 L39.3812167,34.3220199 L38.9325749,34.9176126 C38.6824472,35.2471738 38.3052705,35.723648 38.0908753,35.9737969 C37.6541444,36.4899772 36.4035059,37.748663 35.9985373,38.0782243 C35.8516369,38.1973428 35.7325285,38.3244026 35.7325285,38.3561675 C35.7325285,38.3919031 35.9191316,39.3567632 36.149408,40.5003011 C36.3796842,41.643839 36.5662874,42.5848755 36.5662874,42.588846 C36.5662874,42.6166404 35.3632923,43.3710578 34.8987694,43.6410597 C34.0848618,44.105622 32.7826097,44.7290091 31.9012073,45.0784234 C30.8252612,45.4993088 29.5984444,45.8924 29.4872765,45.8487232 C29.4475737,45.8328407 27.1606919,43.025614 26.8152775,42.5729636 C26.7795449,42.5213456 26.696169,42.5253162 26.1959136,42.5967873 C25.0762944,42.7635532 24.3616438,42.8151712 23.1864407,42.8191419 C22.5631066,42.8191419 21.8921291,42.80723 21.6936151,42.7913476 L21.3362898,42.7595826 L20.1293243,44.5662137 C19.3511493,45.7375459 18.9025076,46.3768154 18.8628047,46.3728632 C18.8270722,46.3728632 18.569004,46.3212268 18.2831437,46.2576969 Z M23.9209426,34.9374656 C27.1448108,34.7270229 30.0709078,33.2618649 32.1632459,30.8119938 C33.3622707,29.4143363 34.2714651,27.5799109 34.6764337,25.7653386 C35.260065,23.1367897 34.9464129,20.4725052 33.7712097,18.0464577 C32.7706989,15.9777658 31.2262596,14.2862827 29.2609705,13.1030386 C25.4852333,10.823904 20.7129557,10.8596396 16.9689807,13.1903922 C14.0270026,15.020847 12.0378918,18.0583695 11.5336661,21.4889833 C11.1961922,23.8197359 11.5614581,26.1822535 12.5857905,28.306534 C14.4796146,32.2136219 18.2672626,34.7190817 22.6306013,34.9533481 C23.1268864,34.9811424 23.3174599,34.9811424 23.9209426,34.9374656 Z" id="path-7"></path>
    </defs>
    <g id="Page-2" stroke="none" stroke-width="1" fill="none" fill-rule="evenodd">
        <g id="Écran-01" transform="translate(-114, -1725)">
            <g id="Group" transform="translate(114, 1725)">
                <g id="Oval">
                    <ellipse fill="#684300" cx="37" cy="37.7505457" rx="37" ry="37.2494543"></ellipse>
                    <ellipse fill="url(#linearGradient-1)" cx="37" cy="35.9561545" rx="35.7153612" ry="35.9561545"></ellipse>
                    <ellipse stroke="#9EAB78" stroke-width="0.355888773" cx="37.4454168" cy="36.4045744" rx="34.1733705" ry="34.4037677"></ellipse>
                    <ellipse stroke="#684300" stroke-width="0.51731992" cx="37" cy="35.9561545" rx="34.1733705" ry="34.4037677"></ellipse>
                </g>
                <g id="iconParametres" transform="translate(13, 12)">
                    <g id="1807204-copy" fill-rule="nonzero">
                        <g id="Shape" transform="translate(24, 24) scale(-1, 1) rotate(-180) translate(-24, -24)">
                            <use fill="url(#linearGradient-2)" xlink:href="#path-4"></use>
                            <use fill="url(#linearGradient-3)" xlink:href="#path-4"></use>
                        </g>
                    </g>
                    <g id="1807204" transform="translate(0.8136, 0.8135)" fill-rule="nonzero">
                        <g id="Shape" transform="translate(23.1864, 23.1864) scale(-1, 1) rotate(-180) translate(-23.1864, -23.1864)">
                            <use fill="url(#linearGradient-5)" xlink:href="#path-7"></use>
                            <use fill="url(#linearGradient-6)" xlink:href="#path-7"></use>
                        </g>
                    </g>
                    <ellipse id="Oval" stroke="#FFE353" stroke-width="1.62725668" cx="24" cy="23.997964" rx="12.6101695" ry="12.6112393"></ellipse>
                </g>
            </g>
        </g>
    </g>
</svg>